<svg width="1580" height="1580" viewBox="0 0 1580 1580" fill="none" xmlns="http://www.w3.org/2000/svg">
<circle cx="761.869" cy="771.246" r="588.398" fill="#E9D3B6"/>
<path d="M764.213 337.566L876.735 403.204L489.94 628.248V691.542L879.08 918.931L766.557 982.225L375.074 759.524V562.61L764.213 337.566Z" fill="#F48120"/>
<path d="M656.379 1036.14L375.074 883.768V1005.67L543.857 1101.78L656.379 1036.14Z" fill="#F48120"/>
<path d="M984.569 464.153L879.08 525.103L1155.7 689.198V560.266L984.569 464.153Z" fill="#F48120"/>
<path d="M1155.7 806.409L764.213 583.708L651.691 649.346L1040.83 873.102V937.685L651.691 1162.73L764.213 1228.37L1155.7 1003.32V806.409Z" fill="#F48120"/>
<path d="M764.213 337.566L876.735 403.204L489.94 628.248V691.542L879.08 918.931L766.557 982.225L375.074 759.524V562.61L764.213 337.566Z" stroke="#F48120"/>
<path d="M656.379 1036.14L375.074 883.768V1005.67L543.857 1101.78L656.379 1036.14Z" stroke="#F48120"/>
<path d="M984.569 464.153L879.08 525.103L1155.7 689.198V560.266L984.569 464.153Z" stroke="#F48120"/>
<path d="M1155.7 806.409L764.213 583.708L651.691 649.346L1040.83 873.102V937.685L651.691 1162.73L764.213 1228.37L1155.7 1003.32V806.409Z" stroke="#F48120"/>
<path d="M764.214 581.365L647.003 649.347L1040.83 874.391V937.685L647.003 1162.73L764.214 1230.71L1158.04 1003.32V806.409L764.214 581.365Z" fill="#333333" stroke="#333333"/>
<path d="M766.557 982.225L881.424 918.931L492.284 691.542V628.248L876.735 403.204L764.213 337.566L375.074 562.61V759.524L766.557 982.225Z" fill="#333333" stroke="#333333"/>
</svg>
